<svg width="844" height="922" viewBox="0 0 844 922" fill="none" xmlns="http://www.w3.org/2000/svg">
<g filter="url(#filter0_iiiii_202_2)">
<g clip-path="url(#clip0_202_2)">
<rect x="44" y="78" width="800" height="800" fill="white"/>
<mask id="mask0_202_2" style="mask-type:alpha" maskUnits="userSpaceOnUse" x="44" y="78" width="800" height="800">
<rect x="44" y="78" width="800" height="800" fill="#EBEBEB"/>
</mask>
<g mask="url(#mask0_202_2)">
<g opacity="0.1" filter="url(#filter1_f_202_2)">
<path d="M-35 997L924 604V1182H-35V997Z" fill="black"/>
</g>
<g opacity="0.1" filter="url(#filter2_f_202_2)">
<path d="M-221 238H918.5L307.5 1029H-221V238Z" fill="black"/>
</g>
<g opacity="0.3">
<rect opacity="0.1" x="44" y="141" width="800" height="4" fill="black"/>
<rect opacity="0.1" x="44" y="208" width="800" height="4" fill="black"/>
<rect opacity="0.1" x="44" y="275" width="800" height="4" fill="black"/>
<rect opacity="0.1" x="44" y="342" width="800" height="4" fill="black"/>
<rect opacity="0.1" x="44" y="409" width="800" height="4" fill="black"/>
<rect opacity="0.1" x="44" y="476" width="800" height="4" fill="black"/>
<rect opacity="0.1" x="44" y="543" width="800" height="4" fill="black"/>
<rect opacity="0.1" x="44" y="610" width="800" height="4" fill="black"/>
<rect opacity="0.1" x="44" y="677" width="800" height="4" fill="black"/>
<rect opacity="0.1" x="44" y="744" width="800" height="4" fill="black"/>
<rect opacity="0.1" x="44" y="811" width="800" height="4" fill="black"/>
</g>
</g>
<g filter="url(#filter3_ddii_202_2)">
<path d="M44 78H844V313.442C844 361.181 825.036 406.964 791.279 440.721L406.721 825.279C372.964 859.036 327.181 878 279.442 878H44V78Z" fill="white"/>
</g>
<mask id="mask1_202_2" style="mask-type:alpha" maskUnits="userSpaceOnUse" x="44" y="78" width="800" height="800">
<path d="M44 78H844V313.442C844 361.181 825.036 406.964 791.279 440.721L406.721 825.279C372.964 859.036 327.181 878 279.442 878H44V78Z" fill="#F8F8F8"/>
</mask>
<g mask="url(#mask1_202_2)">
<g opacity="0.3" filter="url(#filter4_f_202_2)">
<path d="M-35 905.5L924 518V975H-35V905.5Z" fill="black"/>
</g>
<g opacity="0.3" filter="url(#filter5_f_202_2)">
<path d="M132 919L781 729.5V975H132V919Z" fill="black"/>
</g>
<g opacity="0.3" filter="url(#filter6_f_202_2)">
<path d="M25 113H976L25 1064V113Z" fill="white"/>
</g>
</g>
<g filter="url(#filter7_dd_202_2)">
<path d="M44 78H844V298C844 397.411 763.411 478 664 478H624C524.589 478 444 558.589 444 658V698C444 797.411 363.411 878 264 878H44V78Z" fill="white"/>
</g>
<mask id="mask2_202_2" style="mask-type:alpha" maskUnits="userSpaceOnUse" x="44" y="78" width="800" height="800">
<path d="M44 78H844V298C844 397.411 763.411 478 664 478H624C524.589 478 444 558.589 444 658V698C444 797.411 363.411 878 264 878H44V78Z" fill="white"/>
</mask>
<g mask="url(#mask2_202_2)">
<g opacity="0.04">
<rect x="44" y="275" width="800" height="4" fill="black"/>
<rect x="44" y="342" width="800" height="4" fill="black"/>
<rect x="44" y="409" width="800" height="4" fill="black"/>
<rect x="44" y="476" width="800" height="4" fill="black"/>
<rect x="44" y="543" width="800" height="4" fill="black"/>
<rect x="44" y="610" width="800" height="4" fill="black"/>
<rect x="44" y="677" width="800" height="4" fill="black"/>
<rect x="44" y="744" width="800" height="4" fill="black"/>
<rect x="44" y="811" width="800" height="4" fill="black"/>
</g>
<rect x="44" y="78" width="800" height="197" fill="#FFCF24"/>
<g opacity="0.2" filter="url(#filter8_f_202_2)">
<path d="M-35 795.5L924 408V975H-35V795.5Z" fill="black"/>
</g>
<g opacity="0.2" filter="url(#filter9_f_202_2)">
<path d="M79.5 952L1038.5 564.5V981.5H79.5V952Z" fill="black"/>
</g>
<g opacity="0.4" filter="url(#filter10_f_202_2)">
<path d="M-29 1073.5L971 73.5V1073.5H-29Z" fill="white"/>
</g>
<g opacity="0.4" filter="url(#filter11_f_202_2)">
<path d="M-318 -118H633L-318 833V-118Z" fill="white"/>
</g>
<g opacity="0.4" filter="url(#filter12_f_202_2)">
<path d="M-318 -118H633L-318 833V-118Z" fill="white"/>
</g>
<mask id="mask3_202_2" style="mask-type:alpha" maskUnits="userSpaceOnUse" x="38" y="54" width="473" height="883">
<path d="M39.5 936L298 54.5H510.5V936H39.5Z" fill="#D9D9D9" stroke="black"/>
</mask>
<g mask="url(#mask3_202_2)">
<g opacity="0.5" filter="url(#filter13_f_202_2)">
<path d="M223.102 107.956C231.678 75.9476 264.578 56.9526 296.586 65.5291C328.594 74.1057 347.589 107.006 339.013 139.014L195.572 674.342C192.167 687.05 187.464 699.375 181.539 711.122L83.8973 904.685C78.0378 916.301 60.469 911.594 61.2024 898.604L73.4241 682.153C74.1658 669.017 76.2557 655.992 79.661 643.284L223.102 107.956Z" fill="black"/>
</g>
</g>
</g>
<g opacity="0.1">
<mask id="mask4_202_2" style="mask-type:alpha" maskUnits="userSpaceOnUse" x="44" y="78" width="800" height="800">
<rect x="44" y="78" width="800" height="800" fill="url(#paint0_linear_202_2)"/>
</mask>
<g mask="url(#mask4_202_2)">
<rect x="44" y="78" width="800" height="800" fill="black"/>
</g>
</g>
</g>
</g>
<g filter="url(#filter14_iii_202_2)">
<path d="M223.102 57.9555C231.678 25.9476 264.578 6.95263 296.586 15.5291C328.594 24.1057 347.589 57.0059 339.013 89.0138L195.572 624.342C192.167 637.05 187.464 649.375 181.539 661.122L83.8973 854.685C78.0378 866.301 60.469 861.594 61.2024 848.604L73.4241 632.153C74.1658 619.017 76.2557 605.992 79.661 593.284L223.102 57.9555Z" fill="white"/>
</g>
<g filter="url(#filter15_if_202_2)">
<path d="M257.875 67.273C261.306 54.4698 274.466 46.8719 287.269 50.3025C300.072 53.7331 307.67 66.8932 304.24 79.6964L155.678 634.138C152.247 646.941 139.087 654.539 126.284 651.108C113.481 647.678 105.883 634.518 109.313 621.714L257.875 67.273Z" fill="white"/>
</g>
<path opacity="0.08" d="M79.8074 731.83C80.6651 728.629 83.9551 726.73 87.1559 727.587L121.929 736.905C125.13 737.762 127.03 741.052 126.172 744.253C125.314 747.454 122.024 749.354 118.823 748.496L84.0501 739.178C80.8493 738.321 78.9498 735.031 79.8074 731.83Z" fill="black"/>
<path opacity="0.04" d="M258.078 112.88C259.794 106.478 266.374 102.679 272.775 104.394C279.177 106.11 282.976 112.69 281.26 119.091L256.414 211.82C254.699 218.222 248.118 222.021 241.717 220.305C235.315 218.59 231.516 212.01 233.232 205.608L258.078 112.88Z" fill="black"/>
<defs>
<filter id="filter0_iiiii_202_2" x="44" y="38" width="800" height="872" filterUnits="userSpaceOnUse" color-interpolation-filters="sRGB">
<feFlood flood-opacity="0" result="BackgroundImageFix"/>
<feBlend mode="normal" in="SourceGraphic" in2="BackgroundImageFix" result="shape"/>
<feColorMatrix in="SourceAlpha" type="matrix" values="0 0 0 0 0 0 0 0 0 0 0 0 0 0 0 0 0 0 127 0" result="hardAlpha"/>
<feOffset dy="-4"/>
<feGaussianBlur stdDeviation="2"/>
<feComposite in2="hardAlpha" operator="arithmetic" k2="-1" k3="1"/>
<feColorMatrix type="matrix" values="0 0 0 0 0 0 0 0 0 0 0 0 0 0 0 0 0 0 0.08 0"/>
<feBlend mode="normal" in2="shape" result="effect1_innerShadow_202_2"/>
<feColorMatrix in="SourceAlpha" type="matrix" values="0 0 0 0 0 0 0 0 0 0 0 0 0 0 0 0 0 0 127 0" result="hardAlpha"/>
<feOffset dy="4"/>
<feGaussianBlur stdDeviation="2"/>
<feComposite in2="hardAlpha" operator="arithmetic" k2="-1" k3="1"/>
<feColorMatrix type="matrix" values="0 0 0 0 1 0 0 0 0 1 0 0 0 0 1 0 0 0 0.32 0"/>
<feBlend mode="normal" in2="effect1_innerShadow_202_2" result="effect2_innerShadow_202_2"/>
<feColorMatrix in="SourceAlpha" type="matrix" values="0 0 0 0 0 0 0 0 0 0 0 0 0 0 0 0 0 0 127 0" result="hardAlpha"/>
<feOffset dy="-40"/>
<feGaussianBlur stdDeviation="32"/>
<feComposite in2="hardAlpha" operator="arithmetic" k2="-1" k3="1"/>
<feColorMatrix type="matrix" values="0 0 0 0 0 0 0 0 0 0 0 0 0 0 0 0 0 0 0.04 0"/>
<feBlend mode="normal" in2="effect2_innerShadow_202_2" result="effect3_innerShadow_202_2"/>
<feColorMatrix in="SourceAlpha" type="matrix" values="0 0 0 0 0 0 0 0 0 0 0 0 0 0 0 0 0 0 127 0" result="hardAlpha"/>
<feOffset dy="32"/>
<feGaussianBlur stdDeviation="32"/>
<feComposite in2="hardAlpha" operator="arithmetic" k2="-1" k3="1"/>
<feColorMatrix type="matrix" values="0 0 0 0 1 0 0 0 0 1 0 0 0 0 1 0 0 0 0.25 0"/>
<feBlend mode="normal" in2="effect3_innerShadow_202_2" result="effect4_innerShadow_202_2"/>
<feColorMatrix in="SourceAlpha" type="matrix" values="0 0 0 0 0 0 0 0 0 0 0 0 0 0 0 0 0 0 127 0" result="hardAlpha"/>
<feOffset dy="-2"/>
<feGaussianBlur stdDeviation="1"/>
<feComposite in2="hardAlpha" operator="arithmetic" k2="-1" k3="1"/>
<feColorMatrix type="matrix" values="0 0 0 0 1 0 0 0 0 1 0 0 0 0 1 0 0 0 0.4 0"/>
<feBlend mode="normal" in2="effect4_innerShadow_202_2" result="effect5_innerShadow_202_2"/>
</filter>
<filter id="filter1_f_202_2" x="-291" y="348" width="1471" height="1090" filterUnits="userSpaceOnUse" color-interpolation-filters="sRGB">
<feFlood flood-opacity="0" result="BackgroundImageFix"/>
<feBlend mode="normal" in="SourceGraphic" in2="BackgroundImageFix" result="shape"/>
<feGaussianBlur stdDeviation="128" result="effect1_foregroundBlur_202_2"/>
</filter>
<filter id="filter2_f_202_2" x="-285" y="174" width="1267.5" height="919" filterUnits="userSpaceOnUse" color-interpolation-filters="sRGB">
<feFlood flood-opacity="0" result="BackgroundImageFix"/>
<feBlend mode="normal" in="SourceGraphic" in2="BackgroundImageFix" result="shape"/>
<feGaussianBlur stdDeviation="32" result="effect1_foregroundBlur_202_2"/>
</filter>
<filter id="filter3_ddii_202_2" x="-174" y="-140" width="1300" height="1300" filterUnits="userSpaceOnUse" color-interpolation-filters="sRGB">
<feFlood flood-opacity="0" result="BackgroundImageFix"/>
<feColorMatrix in="SourceAlpha" type="matrix" values="0 0 0 0 0 0 0 0 0 0 0 0 0 0 0 0 0 0 127 0" result="hardAlpha"/>
<feOffset dx="32" dy="32"/>
<feGaussianBlur stdDeviation="125"/>
<feComposite in2="hardAlpha" operator="out"/>
<feColorMatrix type="matrix" values="0 0 0 0 0 0 0 0 0 0 0 0 0 0 0 0 0 0 0.32 0"/>
<feBlend mode="normal" in2="BackgroundImageFix" result="effect1_dropShadow_202_2"/>
<feColorMatrix in="SourceAlpha" type="matrix" values="0 0 0 0 0 0 0 0 0 0 0 0 0 0 0 0 0 0 127 0" result="hardAlpha"/>
<feOffset dx="4" dy="4"/>
<feGaussianBlur stdDeviation="32"/>
<feComposite in2="hardAlpha" operator="out"/>
<feColorMatrix type="matrix" values="0 0 0 0 0 0 0 0 0 0 0 0 0 0 0 0 0 0 0.12 0"/>
<feBlend mode="normal" in2="effect1_dropShadow_202_2" result="effect2_dropShadow_202_2"/>
<feBlend mode="normal" in="SourceGraphic" in2="effect2_dropShadow_202_2" result="shape"/>
<feColorMatrix in="SourceAlpha" type="matrix" values="0 0 0 0 0 0 0 0 0 0 0 0 0 0 0 0 0 0 127 0" result="hardAlpha"/>
<feOffset dx="-32" dy="-32"/>
<feGaussianBlur stdDeviation="32"/>
<feComposite in2="hardAlpha" operator="arithmetic" k2="-1" k3="1"/>
<feColorMatrix type="matrix" values="0 0 0 0 0 0 0 0 0 0 0 0 0 0 0 0 0 0 0.12 0"/>
<feBlend mode="normal" in2="shape" result="effect3_innerShadow_202_2"/>
<feColorMatrix in="SourceAlpha" type="matrix" values="0 0 0 0 0 0 0 0 0 0 0 0 0 0 0 0 0 0 127 0" result="hardAlpha"/>
<feOffset dx="-4" dy="-4"/>
<feGaussianBlur stdDeviation="16"/>
<feComposite in2="hardAlpha" operator="arithmetic" k2="-1" k3="1"/>
<feColorMatrix type="matrix" values="0 0 0 0 0 0 0 0 0 0 0 0 0 0 0 0 0 0 0.16 0"/>
<feBlend mode="normal" in2="effect3_innerShadow_202_2" result="effect4_innerShadow_202_2"/>
</filter>
<filter id="filter4_f_202_2" x="-547" y="6" width="1983" height="1481" filterUnits="userSpaceOnUse" color-interpolation-filters="sRGB">
<feFlood flood-opacity="0" result="BackgroundImageFix"/>
<feBlend mode="normal" in="SourceGraphic" in2="BackgroundImageFix" result="shape"/>
<feGaussianBlur stdDeviation="256" result="effect1_foregroundBlur_202_2"/>
</filter>
<filter id="filter5_f_202_2" x="4" y="601.5" width="905" height="501.5" filterUnits="userSpaceOnUse" color-interpolation-filters="sRGB">
<feFlood flood-opacity="0" result="BackgroundImageFix"/>
<feBlend mode="normal" in="SourceGraphic" in2="BackgroundImageFix" result="shape"/>
<feGaussianBlur stdDeviation="64" result="effect1_foregroundBlur_202_2"/>
</filter>
<filter id="filter6_f_202_2" x="-23" y="65" width="1047" height="1047" filterUnits="userSpaceOnUse" color-interpolation-filters="sRGB">
<feFlood flood-opacity="0" result="BackgroundImageFix"/>
<feBlend mode="normal" in="SourceGraphic" in2="BackgroundImageFix" result="shape"/>
<feGaussianBlur stdDeviation="24" result="effect1_foregroundBlur_202_2"/>
</filter>
<filter id="filter7_dd_202_2" x="40" y="74" width="816" height="816" filterUnits="userSpaceOnUse" color-interpolation-filters="sRGB">
<feFlood flood-opacity="0" result="BackgroundImageFix"/>
<feColorMatrix in="SourceAlpha" type="matrix" values="0 0 0 0 0 0 0 0 0 0 0 0 0 0 0 0 0 0 127 0" result="hardAlpha"/>
<feOffset dy="2"/>
<feGaussianBlur stdDeviation="1"/>
<feComposite in2="hardAlpha" operator="out"/>
<feColorMatrix type="matrix" values="0 0 0 0 1 0 0 0 0 1 0 0 0 0 1 0 0 0 0.64 0"/>
<feBlend mode="normal" in2="BackgroundImageFix" result="effect1_dropShadow_202_2"/>
<feColorMatrix in="SourceAlpha" type="matrix" values="0 0 0 0 0 0 0 0 0 0 0 0 0 0 0 0 0 0 127 0" result="hardAlpha"/>
<feOffset dx="4" dy="4"/>
<feGaussianBlur stdDeviation="4"/>
<feComposite in2="hardAlpha" operator="out"/>
<feColorMatrix type="matrix" values="0 0 0 0 1 0 0 0 0 1 0 0 0 0 1 0 0 0 0.25 0"/>
<feBlend mode="normal" in2="effect1_dropShadow_202_2" result="effect2_dropShadow_202_2"/>
<feBlend mode="normal" in="SourceGraphic" in2="effect2_dropShadow_202_2" result="shape"/>
</filter>
<filter id="filter8_f_202_2" x="-547" y="-104" width="1983" height="1591" filterUnits="userSpaceOnUse" color-interpolation-filters="sRGB">
<feFlood flood-opacity="0" result="BackgroundImageFix"/>
<feBlend mode="normal" in="SourceGraphic" in2="BackgroundImageFix" result="shape"/>
<feGaussianBlur stdDeviation="256" result="effect1_foregroundBlur_202_2"/>
</filter>
<filter id="filter9_f_202_2" x="-48.5" y="436.5" width="1215" height="673" filterUnits="userSpaceOnUse" color-interpolation-filters="sRGB">
<feFlood flood-opacity="0" result="BackgroundImageFix"/>
<feBlend mode="normal" in="SourceGraphic" in2="BackgroundImageFix" result="shape"/>
<feGaussianBlur stdDeviation="64" result="effect1_foregroundBlur_202_2"/>
</filter>
<filter id="filter10_f_202_2" x="-285" y="-182.5" width="1512" height="1512" filterUnits="userSpaceOnUse" color-interpolation-filters="sRGB">
<feFlood flood-opacity="0" result="BackgroundImageFix"/>
<feBlend mode="normal" in="SourceGraphic" in2="BackgroundImageFix" result="shape"/>
<feGaussianBlur stdDeviation="128" result="effect1_foregroundBlur_202_2"/>
</filter>
<filter id="filter11_f_202_2" x="-574" y="-374" width="1463" height="1463" filterUnits="userSpaceOnUse" color-interpolation-filters="sRGB">
<feFlood flood-opacity="0" result="BackgroundImageFix"/>
<feBlend mode="normal" in="SourceGraphic" in2="BackgroundImageFix" result="shape"/>
<feGaussianBlur stdDeviation="128" result="effect1_foregroundBlur_202_2"/>
</filter>
<filter id="filter12_f_202_2" x="-830" y="-630" width="1975" height="1975" filterUnits="userSpaceOnUse" color-interpolation-filters="sRGB">
<feFlood flood-opacity="0" result="BackgroundImageFix"/>
<feBlend mode="normal" in="SourceGraphic" in2="BackgroundImageFix" result="shape"/>
<feGaussianBlur stdDeviation="256" result="effect1_foregroundBlur_202_2"/>
</filter>
<filter id="filter13_f_202_2" x="-66.8198" y="-64.5302" width="535.892" height="1103.84" filterUnits="userSpaceOnUse" color-interpolation-filters="sRGB">
<feFlood flood-opacity="0" result="BackgroundImageFix"/>
<feBlend mode="normal" in="SourceGraphic" in2="BackgroundImageFix" result="shape"/>
<feGaussianBlur stdDeviation="64" result="effect1_foregroundBlur_202_2"/>
</filter>
<filter id="filter14_iii_202_2" x="29.1802" y="-18.5302" width="311.892" height="879.836" filterUnits="userSpaceOnUse" color-interpolation-filters="sRGB">
<feFlood flood-opacity="0" result="BackgroundImageFix"/>
<feBlend mode="normal" in="SourceGraphic" in2="BackgroundImageFix" result="shape"/>
<feColorMatrix in="SourceAlpha" type="matrix" values="0 0 0 0 0 0 0 0 0 0 0 0 0 0 0 0 0 0 127 0" result="hardAlpha"/>
<feOffset dx="-24" dy="-24"/>
<feGaussianBlur stdDeviation="24"/>
<feComposite in2="hardAlpha" operator="arithmetic" k2="-1" k3="1"/>
<feColorMatrix type="matrix" values="0 0 0 0 0 0 0 0 0 0 0 0 0 0 0 0 0 0 0.16 0"/>
<feBlend mode="normal" in2="shape" result="effect1_innerShadow_202_2"/>
<feColorMatrix in="SourceAlpha" type="matrix" values="0 0 0 0 0 0 0 0 0 0 0 0 0 0 0 0 0 0 127 0" result="hardAlpha"/>
<feOffset dx="-32" dy="-32"/>
<feGaussianBlur stdDeviation="64"/>
<feComposite in2="hardAlpha" operator="arithmetic" k2="-1" k3="1"/>
<feColorMatrix type="matrix" values="0 0 0 0 0 0 0 0 0 0 0 0 0 0 0 0 0 0 0.1 0"/>
<feBlend mode="normal" in2="effect1_innerShadow_202_2" result="effect2_innerShadow_202_2"/>
<feColorMatrix in="SourceAlpha" type="matrix" values="0 0 0 0 0 0 0 0 0 0 0 0 0 0 0 0 0 0 127 0" result="hardAlpha"/>
<feOffset dx="-4" dy="-8"/>
<feGaussianBlur stdDeviation="6"/>
<feComposite in2="hardAlpha" operator="arithmetic" k2="-1" k3="1"/>
<feColorMatrix type="matrix" values="0 0 0 0 0 0 0 0 0 0 0 0 0 0 0 0 0 0 0.08 0"/>
<feBlend mode="normal" in2="effect2_innerShadow_202_2" result="effect3_innerShadow_202_2"/>
</filter>
<filter id="filter15_if_202_2" x="92.4893" y="33.4787" width="214.574" height="620.453" filterUnits="userSpaceOnUse" color-interpolation-filters="sRGB">
<feFlood flood-opacity="0" result="BackgroundImageFix"/>
<feBlend mode="normal" in="SourceGraphic" in2="BackgroundImageFix" result="shape"/>
<feColorMatrix in="SourceAlpha" type="matrix" values="0 0 0 0 0 0 0 0 0 0 0 0 0 0 0 0 0 0 127 0" result="hardAlpha"/>
<feOffset dx="-16" dy="-16"/>
<feGaussianBlur stdDeviation="32"/>
<feComposite in2="hardAlpha" operator="arithmetic" k2="-1" k3="1"/>
<feColorMatrix type="matrix" values="0 0 0 0 0 0 0 0 0 0 0 0 0 0 0 0 0 0 0.12 0"/>
<feBlend mode="normal" in2="shape" result="effect1_innerShadow_202_2"/>
<feGaussianBlur stdDeviation="1" result="effect2_foregroundBlur_202_2"/>
</filter>
<linearGradient id="paint0_linear_202_2" x1="444" y1="78" x2="444" y2="878" gradientUnits="userSpaceOnUse">
<stop stop-opacity="0"/>
<stop offset="1" stop-opacity="0.32"/>
</linearGradient>
<clipPath id="clip0_202_2">
<rect x="44" y="78" width="800" height="800" rx="180" fill="white"/>
</clipPath>
</defs>
</svg>
